<svg width="32" height="24" viewBox="0 0 32 24" fill="none" xmlns="http://www.w3.org/2000/svg">
<mask id="mask0_42_617" style="mask-type:luminance" maskUnits="userSpaceOnUse" x="0" y="0" width="32" height="24">
<path d="M0 0H31.9969V24H0V0Z" fill="white"/>
</mask>
<g mask="url(#mask0_42_617)">
<path fill-rule="evenodd" clip-rule="evenodd" d="M-2.00171 0H33.9983V24H-2.00171V0Z" fill="#165D31"/>
<path fill-rule="evenodd" clip-rule="evenodd" d="M7.06868 6.80155C7.03118 7.36405 6.97493 8.34843 7.45775 8.45155C8.03431 8.5078 7.71556 7.47655 7.9265 7.28905C7.964 7.1953 8.03431 7.1953 8.039 7.31249V8.18905C8.039 8.4703 8.2265 8.55468 8.36712 8.61093C8.51712 8.60155 8.62025 8.61093 8.6765 8.75155L8.7515 10.2656C8.7515 10.2656 9.09837 10.3687 9.11712 9.41718C9.13118 8.85468 9.00462 8.39062 9.07962 8.2828C9.07962 8.17499 9.22025 8.1703 9.314 8.22187C9.464 8.32499 9.52962 8.45624 9.764 8.40937C10.1202 8.30624 10.3359 8.1328 10.3406 7.86093C10.3335 7.59375 10.2779 7.33008 10.1765 7.0828C10.1952 7.03593 10.1109 6.90937 10.1296 6.86249C10.1906 6.96562 10.289 6.95624 10.3077 6.86249C10.2468 6.66562 10.1531 6.47343 10.0031 6.39374C9.8765 6.28124 9.689 6.29999 9.62806 6.53437C9.59056 6.80155 9.72181 7.11562 9.914 7.37812C9.95618 7.47655 10.0124 7.6453 9.989 7.7953C9.88587 7.85624 9.78275 7.82812 9.69368 7.73905C9.69368 7.73905 9.41243 7.52812 9.41243 7.47655C9.48743 6.99843 9.4265 6.94218 9.38431 6.80624C9.35618 6.62343 9.26712 6.56249 9.19681 6.44062C9.1265 6.36562 9.03275 6.36562 8.98587 6.44062C8.85931 6.65624 8.92025 7.1203 9.00931 7.33124C9.07493 7.52343 9.17337 7.6453 9.1265 7.6453C9.089 7.75312 9.00931 7.72499 8.94837 7.59843C8.87977 7.33208 8.84667 7.05783 8.84993 6.7828C8.8265 6.56718 8.79837 6.1078 8.65306 5.98593C8.56868 5.87343 8.44212 5.92968 8.39525 6.0328C8.38287 6.24221 8.38757 6.45228 8.40931 6.66093C8.50306 7.0078 8.53587 7.31718 8.58275 7.66874C8.59681 8.14218 8.31087 7.87499 8.32493 7.63593C8.38643 7.33539 8.38163 7.02505 8.31087 6.72655C8.264 6.60468 8.21243 6.57655 8.09525 6.5953C8.00618 6.5953 7.7765 6.84374 7.71087 7.26562C7.71087 7.26562 7.65462 7.48124 7.63118 7.67343C7.59837 7.88905 7.45775 8.04843 7.35462 7.6453C7.27025 7.34999 7.214 6.6328 7.07337 6.80155H7.06868Z" fill="white"/>
<path fill-rule="evenodd" clip-rule="evenodd" d="M8.63892 9.10314L7.13892 9.82501C7.15298 9.48282 7.84673 8.86876 8.32485 8.86407C8.62954 8.86876 8.55454 8.98126 8.63423 9.10314H8.63892Z" fill="white"/>
<path fill-rule="evenodd" clip-rule="evenodd" d="M8.37175 9.5719C7.58425 11.611 10.2233 11.8969 10.5186 9.65628C10.5467 9.56253 10.6592 9.47346 10.678 9.62346C10.6171 11.6532 8.63425 11.7891 8.29675 11.1516C8.21735 10.9322 8.17767 10.7005 8.17956 10.4672C8.13268 10.0688 7.92175 10.2235 7.88893 10.6172C7.85612 10.8375 7.8655 10.8985 7.8655 11.1094C7.96862 12.7125 10.5233 12.0235 10.9405 10.7016C11.1608 9.97034 10.903 9.43128 11.0202 9.43128C11.2733 9.70315 11.6296 9.46878 11.7092 9.37503C11.7421 9.32815 11.8264 9.29534 11.8827 9.35628C12.0796 9.4969 12.4264 9.43128 12.5014 9.18284C12.5436 8.9344 12.5764 8.68128 12.5858 8.42346C12.4217 8.47034 12.3046 8.50315 12.2905 8.57346L12.2577 8.78909C12.2436 8.8594 12.1077 8.8594 12.0983 8.77034C12.0374 8.48909 11.7842 8.45628 11.6296 8.88753C11.5311 8.9719 11.3436 8.99065 11.3249 8.86409C11.3483 8.57346 11.2311 8.53596 10.9967 8.6719L10.7717 6.97503C10.8655 6.97503 10.9592 7.04534 11.0483 6.93284C10.9546 6.62815 10.7436 6.0094 10.6264 5.96253C10.5749 5.8969 10.528 5.93909 10.453 5.95784C10.3311 5.99534 10.2186 6.09846 10.2561 6.30471C10.3967 7.18596 10.4905 7.85628 10.6358 8.74221C10.6592 8.84065 10.5749 8.97659 10.4624 8.96253C10.2749 8.83596 10.228 8.57815 9.89987 8.58753C9.6655 8.58753 9.403 8.84534 9.37018 9.08909C9.328 9.28596 9.31393 9.4969 9.37018 9.66565C9.53425 9.86253 9.73112 9.84378 9.90456 9.80159C10.0452 9.74065 10.1624 9.60003 10.2139 9.63284C10.2467 9.67503 10.2186 10.1438 9.54362 10.5C9.13581 10.6875 8.80769 10.725 8.63425 10.3922C8.52644 10.1813 8.64362 9.38909 8.37175 9.5719Z" fill="white"/>
<path fill-rule="evenodd" clip-rule="evenodd" d="M11.7326 7.50003C11.8873 7.44378 12.6373 6.58128 12.6373 6.58128L12.5248 6.48753C12.4826 6.45471 12.4873 6.41721 12.5248 6.3844C12.7123 6.2719 12.6513 6.03753 12.5576 5.92503C12.4939 5.894 12.4239 5.87827 12.3531 5.87908C12.2823 5.8799 12.2127 5.89723 12.1498 5.92971C12.0185 6.05628 11.9904 6.25784 12.0935 6.37971C12.1919 6.42659 12.2904 6.52971 12.2248 6.58596C11.9154 6.91409 11.0763 7.48128 11.1748 7.50003C11.1935 7.52815 11.7138 7.52815 11.7279 7.50003H11.7326ZM7.1857 10.5469C6.90445 10.9969 6.88101 11.6672 7.0357 11.8688C7.12008 11.9625 7.25601 12.0047 7.35445 11.9719C7.53257 11.8969 7.61226 11.536 7.57007 11.4094C7.50914 11.3157 7.46226 11.3016 7.40132 11.3766C7.27945 11.6297 7.22789 11.4563 7.21382 11.3157C7.20039 11.0775 7.21296 10.8386 7.25132 10.6032C7.28414 10.4063 7.25132 10.4625 7.1857 10.5469ZM19.2373 9.82971C18.9654 9.23909 18.5857 8.65784 18.4685 8.43753C18.1032 7.86005 17.7154 7.29711 17.306 6.75003C17.0154 6.40315 17.7841 6.89534 17.2123 6.20159L16.7951 5.85003C16.7013 5.7844 16.4763 5.66253 16.4388 5.8594C16.4201 6.03753 16.4294 6.13128 16.4576 6.27659C16.481 6.37034 16.6216 6.5344 16.6919 6.62815C17.6529 7.90102 18.497 9.2581 19.2138 10.6828C19.3357 10.6219 19.3076 9.92815 19.2373 9.82971Z" fill="white"/>
<path fill-rule="evenodd" clip-rule="evenodd" d="M18.042 11.7891C17.9858 11.85 18.1733 12.1078 18.417 12.1078C18.8202 12.061 19.1764 11.836 19.5045 11.236C19.6379 11.0364 19.7229 10.8085 19.753 10.5703C19.7927 9.43241 19.7014 8.29369 19.4811 7.17659C19.467 7.08284 19.4811 6.97034 19.4905 6.94222C19.5186 6.9094 19.6077 6.94222 19.6545 6.86253C19.7248 6.79222 19.467 6.20628 19.3264 5.98597C19.2795 5.88284 19.2561 5.81722 19.1717 5.99534C19.0699 6.19189 19.0214 6.4117 19.0311 6.63284C19.2233 7.96878 19.2842 9.13597 19.4061 10.4719C19.4202 10.6032 19.4014 10.7907 19.3123 10.8657C18.9586 11.2595 18.5258 11.5741 18.042 11.7891ZM23.503 11.7844C23.2123 11.9532 23.2123 12.1453 23.4467 12.15C23.8498 12.1032 24.328 12.0703 24.6561 11.5735C24.772 11.3394 24.839 11.0842 24.853 10.8235C24.912 9.70306 24.838 8.5796 24.6327 7.47659C24.6233 7.38284 24.5811 7.16253 24.5952 7.1344C24.6233 7.06878 24.7545 7.13909 24.8014 7.06409C24.867 6.99378 24.4592 6.46878 24.3139 6.24378C24.267 6.14065 24.2483 6.07503 24.1592 6.25315C24.0648 6.45151 24.0353 6.67457 24.0748 6.89065C24.2905 8.34378 24.4498 9.43128 24.4827 10.7157C24.4639 10.8375 24.4592 10.9032 24.403 11.0578C24.2764 11.2172 24.1358 11.4235 24.0045 11.5219C23.8733 11.6157 23.592 11.7094 23.503 11.7844Z" fill="white"/>
<path fill-rule="evenodd" clip-rule="evenodd" d="M23.7186 10.4859C23.7186 10.1437 23.7233 9.8531 23.7139 9.59528C23.7109 9.37694 23.663 9.16155 23.5733 8.96247C23.4889 8.77028 23.5405 8.6156 23.4983 8.40935C23.4608 8.2031 23.4702 7.89372 23.4139 7.65466C23.3952 7.56091 23.3483 7.25622 23.3624 7.22341C23.3858 7.15778 23.4749 7.22341 23.5217 7.14841C23.5874 7.0781 23.2874 6.30466 23.1374 6.08435C23.0858 5.98591 22.9827 6.01872 22.8655 6.1781C22.7483 6.28591 22.7905 6.52497 22.8374 6.75466C23.1233 8.26872 23.3436 9.64216 23.2967 11.0812C23.278 11.2031 23.7186 10.7156 23.7186 10.4859ZM21.5764 8.61091C21.3936 8.60153 21.0139 8.24997 20.9014 8.04841C20.883 7.99915 20.8752 7.94656 20.8784 7.89407C20.8816 7.84158 20.8958 7.79035 20.9202 7.74372C20.9905 7.69685 21.0936 7.64997 21.1733 7.69685C21.1733 7.69685 21.253 7.80935 21.2389 7.82341C21.3327 7.87028 21.3795 7.84685 21.3889 7.80466C21.3936 7.73435 21.3608 7.69216 21.3608 7.61716C21.403 7.40153 21.642 7.36872 21.7358 7.50466C21.8014 7.58903 21.8295 7.76247 21.8342 7.87966C21.8342 7.9406 21.7405 7.87028 21.6795 7.87966C21.628 7.89841 21.6139 7.96403 21.6092 8.02028C21.5999 8.17497 21.5811 8.42341 21.5764 8.60622V8.61091ZM18.2108 10.8609C18.2577 10.4015 18.192 9.58122 18.1874 9.30935C18.1623 8.61014 18.1044 7.9125 18.0139 7.21872C17.9577 6.82497 18.1733 7.26091 18.1452 7.03122C18.0749 6.64216 17.8592 6.37497 17.6014 6.02341C17.5217 5.90622 17.5217 5.88278 17.3952 6.05153C17.2545 6.3656 17.3764 6.58591 17.4139 6.83435C17.5967 7.6406 17.7045 8.38122 17.7561 9.11716C17.8101 9.88165 17.8163 10.6488 17.7749 11.414C17.9155 11.4187 18.1311 11.1937 18.2108 10.8609Z" fill="white"/>
<path fill-rule="evenodd" clip-rule="evenodd" d="M24.342 10.125C24.0186 9.58123 23.5358 8.99998 23.4045 8.77967C22.9699 8.17268 22.5133 7.58166 22.0358 7.0078C21.6373 6.58592 22.2233 6.93748 21.9608 6.60936C21.7404 6.3703 21.6795 6.29061 21.4873 6.1453C21.3936 6.08436 21.3373 5.96717 21.2998 6.16873C21.2849 6.34332 21.2817 6.51872 21.2904 6.69373C21.2904 6.77342 21.3748 6.92811 21.4498 7.02186C22.4201 8.21717 23.4842 9.43592 24.3373 10.9687C24.4592 10.9078 24.417 10.2187 24.3373 10.125H24.342Z" fill="white"/>
<path fill-rule="evenodd" clip-rule="evenodd" d="M9.74509 9.12656C9.72165 9.16875 9.67009 9.22031 9.68884 9.27188C9.72165 9.31875 9.75446 9.33281 9.81071 9.33281C9.86228 9.33281 9.93728 9.34688 9.95134 9.31875C9.97946 9.28594 9.99821 9.225 9.97946 9.16406C9.92321 9.02344 9.77321 9.07969 9.74509 9.12656Z" fill="#165D31"/>
<path fill-rule="evenodd" clip-rule="evenodd" d="M20.6015 16.9922C21.0327 17.0109 21.314 17.0156 21.6937 17.0578L22.1437 17.0109C22.6405 16.964 22.6593 17.7187 22.6593 17.7187C22.6593 18.164 22.4858 18.1875 22.2655 18.2344C22.139 18.2531 22.078 18.1594 22.0077 18.0656C21.9017 18.0996 21.7888 18.106 21.6796 18.0844C21.4968 18.075 21.3187 18.075 21.1405 18.0609C20.953 18.0469 20.8499 18.0844 20.6577 18.0656C20.6202 18.1265 20.564 18.2109 20.4515 18.1875C20.3577 18.1734 20.2405 17.9062 20.2733 17.6953C20.3437 17.5453 20.3202 17.5969 20.3202 17.5312C18.5577 17.4844 16.7812 17.4047 15.0562 17.4281C13.7062 17.4328 12.3749 17.489 11.039 17.5453C10.3265 17.5359 9.78271 17.4234 9.40771 16.875C9.44521 16.875 11.2265 16.9734 11.7468 16.9406C12.7077 16.9312 13.589 16.8515 14.5687 16.8234C16.4999 16.8562 18.4171 16.8562 20.3483 16.9922C20.1608 16.8656 20.1608 16.5703 20.4421 16.4953C20.4655 16.4765 20.4796 16.6406 20.5218 16.6359C20.7515 16.6219 20.6483 16.9312 20.6015 16.9922ZM12.839 6.34217C12.5483 7.17655 13.0077 8.0953 13.3265 8.00623C13.5608 8.09998 13.7015 7.65936 13.7952 7.18123C13.8655 7.0453 13.9124 7.03123 13.9452 7.10155C13.9358 7.73905 13.9921 7.88436 14.1562 8.07655C14.5218 8.3578 14.8265 8.11405 14.8499 8.09061L15.1312 7.80467C15.1968 7.73436 15.2812 7.73436 15.3702 7.79061C15.4593 7.8703 15.4452 8.00623 15.6327 8.09998C15.7921 8.16561 16.1249 8.11873 16.2046 7.9828C16.3077 7.79998 16.3358 7.73904 16.3827 7.67342C16.4577 7.57498 16.5843 7.61717 16.5843 7.64998C16.5702 7.70623 16.4952 7.7578 16.5468 7.86092C16.6405 7.92654 16.6593 7.88436 16.7108 7.87029C16.8983 7.77654 17.039 7.37342 17.039 7.37342C17.0437 7.22342 16.9593 7.2328 16.903 7.2703L16.7577 7.36873C16.664 7.38279 16.4905 7.44373 16.4015 7.30779C16.3124 7.14842 16.3124 6.91873 16.2468 6.75467C16.2468 6.7453 16.1249 6.49686 16.2374 6.4828C16.2937 6.49217 16.4108 6.52498 16.4296 6.42655C16.4858 6.32811 16.3077 6.05155 16.1812 5.91092C16.0733 5.79373 15.9233 5.77967 15.778 5.90155C15.6749 5.9953 15.689 6.09842 15.6702 6.19686C15.6524 6.2674 15.6517 6.34116 15.668 6.41206C15.6843 6.48296 15.7172 6.54897 15.764 6.60467C15.8671 6.80154 16.0499 7.05936 15.989 7.42498C15.989 7.42498 15.8812 7.59373 15.6937 7.5703C15.614 7.55623 15.4874 7.52342 15.4218 7.01717C15.3702 6.64217 15.4312 6.1078 15.2718 5.85936C15.2108 5.70467 15.1687 5.55936 15.028 5.81717C14.9905 5.9203 14.8265 6.07498 14.9437 6.38905C15.0545 6.67206 15.0869 6.97977 15.0374 7.27967C14.9671 7.3828 14.953 7.41561 14.864 7.51405C14.7421 7.65467 14.6062 7.61717 14.503 7.56561C14.4093 7.50467 14.3343 7.47186 14.2874 7.26092C14.2968 6.93279 14.3155 6.39373 14.2546 6.28123C14.1655 6.10311 14.0202 6.16873 13.9593 6.22498C13.6804 6.53475 13.4937 6.91629 13.4202 7.32655C13.3358 7.59842 13.2468 7.51873 13.1858 7.41092C13.0358 7.2703 13.0218 6.15936 12.839 6.34217Z" fill="white"/>
<path fill-rule="evenodd" clip-rule="evenodd" d="M13.7201 8.16095C13.856 8.0672 13.7951 8.00158 13.9919 8.19845C14.2461 8.64807 14.3936 9.15002 14.4232 9.66564C14.4138 9.78751 14.4982 9.86251 14.5404 9.83439C14.5591 9.55314 15.2482 9.15939 15.881 9.10314C15.9748 9.0797 15.9279 8.89689 15.9419 8.80314C15.9044 8.45158 16.1388 8.13283 16.4669 8.10939C16.9169 8.17501 17.0669 8.41408 17.0763 8.77501C17.0248 9.47814 16.2935 9.59533 15.8857 9.65158C15.8248 9.67501 15.7966 9.70314 15.8857 9.73595L17.6013 9.74533L17.6904 9.7922C17.6998 9.83908 17.6623 9.80158 17.5966 9.91408C17.5023 10.0799 17.4432 10.2634 17.4232 10.4531C16.9123 10.6219 16.3826 10.6875 15.8482 10.7578C15.6607 10.8516 15.5669 10.9781 15.6044 11.1188C15.6701 11.2735 16.0826 11.4328 16.0826 11.4375C16.1623 11.4844 16.2513 11.6016 16.0591 11.8406C15.2248 11.8031 14.5732 11.4469 14.3482 10.9453C14.2826 10.8938 14.2076 10.9453 14.1607 11.011C13.8326 11.4328 13.5138 11.8078 12.956 12.0141C12.6279 12.0985 12.2857 11.9625 12.1263 11.7469C12.0185 11.6203 12.0232 11.4844 11.9857 11.4563C11.8029 11.536 10.256 12.1922 10.4529 11.8828C10.8279 11.4844 11.4841 11.1844 12.056 10.7906C12.0982 10.6547 12.1732 10.2047 12.3982 10.0594C12.4123 10.0594 12.3654 10.3219 12.3701 10.4344C12.3701 10.5281 12.3607 10.561 12.3794 10.5375C12.4216 10.5141 13.1154 9.96564 13.1763 9.79689C13.2419 9.70314 13.1904 9.45939 13.1904 9.45001C13.0591 9.11251 12.8763 9.08439 12.8107 8.91564C12.7498 8.69533 12.7779 8.4422 12.9044 8.3672C13.0169 8.26876 13.1482 8.27814 13.2748 8.39064C13.4154 8.5172 13.5373 8.76564 13.5748 8.94845C13.5513 9.01876 13.3873 8.90158 13.3404 8.93439C13.4306 9.03807 13.4906 9.16455 13.5138 9.30001C13.6076 9.68439 13.5794 9.83439 13.4857 10.0828C13.1763 10.7344 12.7826 10.9266 12.4357 11.1703C12.4263 11.1703 12.4216 11.3344 12.5482 11.4235C12.5951 11.4703 12.7779 11.4938 12.9888 11.4235C13.4395 11.1732 13.8039 10.7924 14.0341 10.3313C14.074 9.98034 14.0355 9.62494 13.9216 9.29064C13.7857 8.97658 13.6263 8.53126 13.6263 8.52189C13.6216 8.32501 13.6357 8.25939 13.7201 8.16095ZM9.22945 6.35158C9.42632 6.44533 9.80132 6.40314 9.78257 6.08439L9.7732 5.93908C9.7357 5.84533 9.6232 5.86876 9.59976 5.96251C9.59039 5.99533 9.61382 6.04689 9.5857 6.06095C9.56695 6.0797 9.50601 6.07033 9.50601 5.98126C9.50601 5.95314 9.48726 5.92501 9.4732 5.90626C9.46382 5.89689 9.45445 5.89689 9.43101 5.89689C9.40289 5.89689 9.40289 5.90158 9.38882 5.92501C9.38414 5.94845 9.37476 5.97189 9.37476 6.00001C9.37476 6.03283 9.35601 6.0422 9.33726 6.04689C9.30914 6.04689 9.31382 6.04689 9.29039 6.03751C9.28101 6.02345 9.26695 6.01876 9.26695 5.99064L9.25289 5.91564C9.24351 5.90158 9.22476 5.8922 9.20601 5.88751C9.0982 5.88751 9.08882 6.01408 9.0982 6.06095C9.08882 6.07033 9.08414 6.29064 9.22945 6.35158Z" fill="white"/>
<path fill-rule="evenodd" clip-rule="evenodd" d="M15.0187 8.79846C15.2155 8.89221 15.689 8.84065 15.5718 8.53596L15.5624 8.38596C15.5202 8.29221 15.4124 8.31565 15.389 8.41408C15.3796 8.44221 15.403 8.49377 15.3702 8.50783C15.3562 8.52658 15.2905 8.51721 15.2952 8.43283C15.2952 8.40471 15.2765 8.3719 15.2624 8.35315C15.2484 8.34846 15.2437 8.34377 15.2155 8.34377C15.1921 8.34377 15.1921 8.35315 15.178 8.37658C15.1687 8.40002 15.164 8.42346 15.164 8.45158C15.1593 8.47971 15.1452 8.48908 15.1218 8.49846C15.0984 8.49846 15.103 8.49846 15.0843 8.4844C15.0702 8.47033 15.0562 8.46565 15.0562 8.44221L15.0421 8.36721C15.0327 8.35315 15.014 8.34377 14.9952 8.33908C14.8874 8.33908 14.878 8.46096 14.8827 8.50783C14.878 8.51721 14.8734 8.74221 15.0234 8.79846H15.0187ZM18.3937 7.78596C18.5905 7.87971 18.9609 7.83752 18.9468 7.52346L18.9374 7.37346C18.8952 7.27971 18.7874 7.30315 18.764 7.3969C18.7546 7.42971 18.778 7.48127 18.7452 7.50002C18.7312 7.51408 18.6655 7.50471 18.6702 7.41565C18.6702 7.38752 18.6515 7.3594 18.6374 7.34065C18.6234 7.33127 18.6187 7.33127 18.5905 7.33127C18.5671 7.33127 18.5671 7.34065 18.553 7.36408L18.539 7.4344C18.5343 7.46721 18.5202 7.48127 18.4968 7.48127C18.4734 7.48127 18.478 7.48127 18.4593 7.4719C18.4452 7.45783 18.4312 7.45315 18.4312 7.42971C18.4312 7.40627 18.4265 7.36877 18.4171 7.35002C18.4077 7.33596 18.389 7.33127 18.3702 7.32658C18.2624 7.32658 18.253 7.44846 18.2577 7.49533C18.253 7.50471 18.2484 7.72502 18.3984 7.78596H18.3937ZM20.1421 10.3313C19.7999 10.7203 19.9499 11.3625 20.0296 11.5031C20.1421 11.7281 20.2312 11.8735 20.4515 11.986C20.653 12.1313 20.8124 12.0422 20.8968 11.9391C21.0984 11.7281 21.103 11.1891 21.1968 11.086C21.2624 10.8891 21.4312 10.9219 21.5109 11.011C21.5854 11.1168 21.6853 11.2022 21.8015 11.2594C21.989 11.4235 22.214 11.4563 22.439 11.3063C22.589 11.2172 22.6874 11.1094 22.7765 10.8891C22.8702 10.6266 22.8234 9.40783 22.7999 8.68596L22.603 7.67815C22.603 7.66877 22.5796 7.20002 22.5562 7.09221C22.5562 7.04533 22.5421 7.03127 22.589 7.03596C22.6405 7.08283 22.6452 7.08283 22.6827 7.0969C22.7296 7.10627 22.7765 7.01721 22.7437 6.94221L22.2749 6.07033C22.2374 6.03283 22.1859 5.99533 22.1249 6.07971C22.089 6.11226 22.0604 6.15207 22.041 6.19652C22.0216 6.24097 22.0118 6.28903 22.0124 6.33752C22.0265 6.54377 22.0593 6.75471 22.0734 6.96096L22.2609 8.02033C22.3218 8.77033 22.3359 9.38908 22.3968 10.1438C22.3874 10.4625 22.289 10.7391 22.1952 10.7813C22.1952 10.7813 22.0546 10.861 21.9609 10.7719C21.8905 10.7438 21.614 10.3078 21.614 10.3078C21.4734 10.1813 21.3796 10.2141 21.2812 10.3078C20.9999 10.5797 20.878 11.0766 20.6859 11.4235C20.639 11.5031 20.4984 11.5641 20.3484 11.4188C19.964 10.8891 20.189 10.1391 20.1421 10.3313ZM18.4827 5.93908C18.6609 6.0094 18.7827 6.37033 18.7452 6.54846C18.7077 6.7594 18.614 6.99377 18.5484 6.96565C18.4734 6.93752 18.5952 6.75002 18.5249 6.55315C18.4874 6.4219 18.2437 6.18752 18.2718 6.1219C18.2249 5.97658 18.3749 5.91096 18.4827 5.9344V5.93908Z" fill="white"/>
<path fill-rule="evenodd" clip-rule="evenodd" d="M20.7139 10.5469C20.7468 10.1156 20.6858 9.85313 20.6764 9.60001C20.6671 9.34688 20.3905 7.41563 20.3343 7.22813C20.2639 6.8625 20.6014 7.18126 20.5639 6.96563C20.4468 6.70313 20.1608 6.31407 20.0718 6.08438C20.0155 5.99063 20.0389 5.89688 19.9171 6.06094C19.8121 6.34859 19.7752 6.65664 19.8093 6.96094C20.0999 8.475 20.3952 9.73126 20.3483 11.1703C20.4889 11.1703 20.6436 10.8563 20.7139 10.5469ZM23.7327 6.54844C23.8968 6.62813 23.9905 7.07813 23.9718 7.20469C23.9389 7.43907 23.8546 7.69219 23.7936 7.65938C23.7233 7.63125 23.8077 7.3125 23.7749 7.21407C23.7374 7.07344 23.5171 6.82032 23.5405 6.74532C23.4936 6.58594 23.6343 6.52032 23.7327 6.54844ZM11.7468 9.73126C11.9014 9.79219 11.9952 10.1203 11.9811 10.2141C11.9436 10.3875 11.8639 10.575 11.803 10.5469C11.7421 10.5281 11.8171 10.2938 11.7889 10.2188C11.7749 10.0453 11.5593 9.95157 11.5639 9.87657C11.5264 9.73594 11.6577 9.71251 11.7514 9.73126H11.7468Z" fill="white"/>
<path fill-rule="evenodd" clip-rule="evenodd" d="M15.478 10.2281C15.6749 10.2375 15.7733 10.3969 15.5905 10.4625C15.403 10.5234 15.2296 10.575 15.2249 10.8375C15.2952 11.2125 15.1312 11.0812 15.0374 11.0344C14.9249 10.95 14.6062 10.7531 14.5593 10.3312C14.5546 10.2328 14.6343 10.1437 14.7608 10.1437C14.9483 10.1953 15.2296 10.2 15.478 10.2281Z" fill="#165D31"/>
<path fill-rule="evenodd" clip-rule="evenodd" d="M7.62652 5.83125C7.85152 5.89687 7.86558 6.23437 7.85152 6.33281C7.81871 6.51094 7.73902 6.70312 7.68277 6.67969C7.61715 6.65625 7.68277 6.4125 7.64996 6.3375C7.61715 6.23437 7.42496 6.0375 7.44371 5.98125C7.40152 5.86406 7.53746 5.80781 7.62652 5.83125ZM12.1218 7.40625C11.9437 7.5 11.8781 7.78125 11.9859 7.95C12.089 8.09062 12.2484 8.03906 12.2671 8.03906C12.4406 8.05781 12.5437 7.71562 12.5437 7.71562C12.5437 7.71562 12.5484 7.62187 12.3468 7.80469C12.2578 7.81875 12.2531 7.78594 12.2296 7.73906C12.2082 7.64982 12.2164 7.55601 12.2531 7.47187C12.2859 7.3875 12.2203 7.35 12.1218 7.40625ZM13.4343 5.7C13.3406 5.76093 13.1671 5.94375 13.1625 6.15C13.1578 6.26718 13.1343 6.26718 13.2093 6.3375C13.2703 6.42187 13.3218 6.41719 13.4343 6.35625C13.4624 6.3386 13.4864 6.31532 13.505 6.28789C13.5235 6.26045 13.5362 6.22946 13.5421 6.19687C13.5703 6.06562 13.4015 6.2625 13.3828 6.1125C13.3453 5.97187 13.4531 5.91562 13.5562 5.78437C13.5562 5.69062 13.5562 5.62968 13.4296 5.7H13.4343ZM14.4843 5.8875C14.443 6.05819 14.4179 6.2324 14.4093 6.40781C14.3812 6.53906 14.55 6.59531 14.6203 6.42656C14.7328 6.12187 14.7328 5.99062 14.7421 5.86406C14.7093 5.6625 14.5734 5.66718 14.4843 5.8875ZM21.1406 9.27656C21.1593 9.25312 22.0781 8.60156 22.0781 8.60156C22.1718 8.56875 22.1484 8.93906 22.1062 8.93437C21.8213 9.20897 21.4936 9.43537 21.1359 9.60468C21.089 9.6375 21.0468 9.35625 21.1359 9.27656H21.1406ZM21.9703 9.26718C22.1343 9.34687 22.2 9.82031 22.1812 9.94687C22.1812 10.2 22.0265 10.3969 21.9609 10.3687C21.8953 10.3359 21.9703 10.0547 21.9375 9.95625C21.9 9.81562 21.764 9.55781 21.7875 9.48281C21.7406 9.32344 21.8718 9.23906 21.975 9.26718H21.9703ZM16.5328 11.3016C16.6088 11.2128 16.6972 11.1355 16.7953 11.0719C16.889 11.025 16.9734 11.1094 16.9687 11.1047C16.9828 11.1984 16.9125 11.2781 16.9359 11.4C16.9546 11.4469 16.9687 11.5031 17.0578 11.4844C17.2031 11.3672 17.339 11.3578 17.4796 11.3531C17.5968 11.3578 17.6015 11.55 17.5265 11.55C17.2593 11.6062 17.1421 11.6812 16.95 11.7516C16.8562 11.8078 16.7812 11.7375 16.7812 11.7328C16.7812 11.7281 16.7296 11.6812 16.7625 11.5594C16.7718 11.4656 16.7343 11.4094 16.65 11.4187C16.5937 11.4562 16.5375 11.475 16.5093 11.4047C16.4953 11.3578 16.4906 11.3297 16.5328 11.3016ZM22.9359 11.5547C22.9734 11.6016 23.0015 11.6484 22.9312 11.7328L22.7578 11.8828C22.7296 11.9297 22.7109 12.0141 22.8046 12.0375C22.9734 12.0844 23.3671 11.8266 23.3671 11.8219C23.4328 11.775 23.414 11.6812 23.4046 11.6812C23.3671 11.6391 23.2828 11.6672 23.2265 11.6578C23.1984 11.6578 23.1093 11.6484 23.1515 11.5641C23.183 11.5226 23.2083 11.4768 23.2265 11.4281C23.25 11.3719 23.2265 11.3344 23.1328 11.3016C23.0343 11.2828 22.9921 11.2922 22.8843 11.3016C22.8281 11.3109 22.8093 11.3391 22.7953 11.4094C22.8 11.5172 22.8656 11.5125 22.9359 11.55V11.5547Z" fill="white"/>
<path fill-rule="evenodd" clip-rule="evenodd" d="M16.5655 8.89216C16.542 8.93903 16.4576 8.93903 16.378 8.89216C16.2983 8.84528 16.2514 8.77028 16.2795 8.7281C16.3076 8.68591 16.3873 8.68591 16.467 8.7281C16.5467 8.77028 16.5889 8.84997 16.5655 8.89216ZM12.3936 6.37966C12.3467 6.39372 12.2811 6.35154 12.253 6.28591C12.2248 6.22029 12.2389 6.16403 12.2858 6.14997C12.3326 6.13591 12.3936 6.18278 12.4264 6.24372C12.4592 6.30466 12.4405 6.37028 12.3889 6.38435L12.3936 6.37966ZM20.6483 17.5781C21.0889 17.5968 21.5014 17.5781 21.9373 17.6015C22.017 17.6718 21.9608 17.8359 21.9092 17.8265L21.5436 17.8125C21.5389 17.6718 21.1826 17.6953 21.192 17.8172C20.9998 17.8406 20.8264 17.8125 20.6295 17.8031C20.5733 17.7328 20.5826 17.6062 20.6483 17.5781Z" fill="#165D31"/>
</g>
</svg>
